<svg xmlns="http://www.w3.org/2000/svg" xmlns:xlink="http://www.w3.org/1999/xlink" width="40" zoomAndPan="magnify" viewBox="0 0 30 30.000001" height="40" preserveAspectRatio="xMidYMid meet" version="1.0"><defs><clipPath id="id1"><path d="M 13 15 L 17 15 L 17 21.1875 L 13 21.1875 Z M 13 15 " clip-rule="nonzero"/></clipPath><clipPath id="id2"><path d="M 7.253906 8.125 L 22 8.125 L 22 21 L 7.253906 21 Z M 7.253906 8.125 " clip-rule="nonzero"/></clipPath><clipPath id="id3"><path d="M 4.949219 4.464844 L 25.035156 4.464844 L 25.035156 24.550781 L 4.949219 24.550781 Z M 4.949219 4.464844 " clip-rule="nonzero"/></clipPath></defs><g clip-path="url(#id1)"><path fill="#7cb697" d="M 14.886719 15.488281 C 14.726562 16.359375 15.054688 17.570312 15.476562 19.011719 C 15.902344 20.457031 13.351562 20.363281 13.351562 20.363281 C 14.503906 20.757812 15.386719 20.1875 15.386719 20.1875 C 15.320312 20.992188 14.539062 21.1875 14.539062 21.1875 C 15.722656 21.039062 16.621094 19.6875 15.78125 18.304688 C 14.941406 16.917969 14.886719 15.488281 14.886719 15.488281 " fill-opacity="1" fill-rule="nonzero"/></g><path fill="#7cb697" d="M 16.105469 14.335938 L 14.871094 13.835938 L 13.640625 14.335938 L 12.777344 13.835938 C 12.777344 13.835938 12.566406 15 13.449219 16.988281 C 13.449219 16.988281 13.113281 15.652344 13.382812 14.777344 L 13.71875 14.863281 L 14.871094 14.546875 L 16.027344 14.863281 L 16.363281 14.777344 C 16.628906 15.652344 16.292969 16.988281 16.292969 16.988281 C 17.179688 15 16.964844 13.835938 16.964844 13.835938 L 16.105469 14.335938 " fill-opacity="1" fill-rule="nonzero"/><g clip-path="url(#id2)"><path fill="#eaeaea" d="M 16.621094 12.5 L 15.769531 12.550781 C 15.769531 12.550781 17.023438 10.589844 18.902344 10.578125 C 18.902344 10.578125 17.222656 11.054688 16.621094 12.5 Z M 15.1875 12.847656 L 15.1875 12.832031 L 15.632812 13.546875 C 15.363281 13.429688 15.1875 13.152344 15.1875 12.847656 Z M 14.558594 12.847656 C 14.558594 13.152344 14.382812 13.429688 14.109375 13.546875 L 14.558594 12.832031 Z M 13.125 12.5 C 12.519531 11.054688 10.839844 10.578125 10.839844 10.578125 C 12.722656 10.589844 13.976562 12.550781 13.976562 12.550781 Z M 20.023438 10.449219 C 17.964844 8.125 14.871094 9.148438 14.871094 9.148438 C 14.871094 9.148438 11.78125 8.125 9.722656 10.449219 C 9.722656 10.449219 7.257812 11.335938 7.996094 14.570312 C 8.734375 17.804688 13.820312 18.734375 11.265625 20.804688 C 11.265625 20.804688 12.945312 20.222656 12.296875 18.734375 C 11.648438 17.246094 7.839844 14.664062 10.617188 12.730469 C 10.617188 12.730469 8.554688 14.382812 11.757812 17.476562 C 11.757812 17.476562 8.511719 13.753906 11.667969 12.636719 C 11.667969 12.636719 11.289062 12.125 10.214844 12.195312 C 9.140625 12.265625 8.644531 13.742188 9.296875 14.957031 C 9.296875 14.957031 8.464844 14.152344 8.824219 12.871094 C 9.183594 11.589844 11.847656 11.265625 12.835938 13.636719 L 13.628906 14.082031 L 14.871094 13.570312 L 16.117188 14.082031 L 16.910156 13.636719 C 17.894531 11.265625 20.5625 11.589844 20.917969 12.871094 C 21.277344 14.152344 20.449219 14.957031 20.449219 14.957031 C 21.097656 13.742188 20.605469 12.265625 19.53125 12.195312 C 18.457031 12.125 18.074219 12.636719 18.074219 12.636719 C 21.234375 13.753906 17.984375 17.476562 17.984375 17.476562 C 21.1875 14.382812 19.128906 12.730469 19.128906 12.730469 C 21.90625 14.664062 18.097656 17.246094 17.449219 18.734375 C 16.796875 20.222656 18.476562 20.804688 18.476562 20.804688 C 15.925781 18.734375 21.007812 17.804688 21.75 14.570312 C 22.488281 11.335938 20.023438 10.449219 20.023438 10.449219 " fill-opacity="1" fill-rule="nonzero"/></g><g clip-path="url(#id3)"><path fill="#eaeaea" d="M 14.992188 24.550781 C 12.3125 24.550781 9.785156 23.507812 7.890625 21.609375 C 5.992188 19.714844 4.949219 17.191406 4.949219 14.507812 C 4.949219 11.828125 5.992188 9.300781 7.890625 7.40625 C 9.785156 5.507812 12.3125 4.464844 14.992188 4.464844 C 17.671875 4.464844 20.199219 5.507812 22.09375 7.40625 C 23.992188 9.304688 25.035156 11.828125 25.035156 14.507812 C 25.035156 17.191406 23.992188 19.714844 22.09375 21.609375 C 20.199219 23.507812 17.671875 24.550781 14.992188 24.550781 Z M 14.992188 5.066406 C 12.472656 5.066406 10.097656 6.050781 8.316406 7.832031 C 6.535156 9.613281 5.550781 11.988281 5.550781 14.507812 C 5.550781 17.027344 6.535156 19.402344 8.316406 21.183594 C 10.097656 22.964844 12.472656 23.949219 14.992188 23.949219 C 17.511719 23.949219 19.886719 22.964844 21.667969 21.183594 C 23.449219 19.402344 24.433594 17.027344 24.433594 14.507812 C 24.433594 11.988281 23.449219 9.613281 21.667969 7.832031 C 19.886719 6.050781 17.511719 5.066406 14.992188 5.066406 Z M 14.992188 5.066406 " fill-opacity="1" fill-rule="nonzero"/></g></svg>